PathFileType	4	(X/Y/Z)	45_2_89_p0_0-146_filt_butterworth.trc
DataRate	CameraRate	NumFrames	NumMarkers	Units	OrigDataRate	OrigDataStartFrame	OrigNumFrames
53.0	53.0	6	27	m	53.0	18	146
Frame#	Time	RHip			RKnee			RAnkle			RBigToe			RSmallToe			RHeel			LHip			LKnee			LAnkle			LBigToe			LSmallToe			LHeel			Neck			Head			Nose			RShoulder			RElbow			RWrist			RThumb			RIndex			RPinky			LShoulder			LElbow			LWrist			LThumb			LIndex			LPinky			
		X1	Y1	Z1	X2	Y2	Z2	X3	Y3	Z3	X4	Y4	Z4	X5	Y5	Z5	X6	Y6	Z6	X7	Y7	Z7	X8	Y8	Z8	X9	Y9	Z9	X10	Y10	Z10	X11	Y11	Z11	X12	Y12	Z12	X13	Y13	Z13	X14	Y14	Z14	X15	Y15	Z15	X16	Y16	Z16	X17	Y17	Z17	X18	Y18	Z18	X19	Y19	Z19	X20	Y20	Z20	X21	Y21	Z21	X22	Y22	Z22	X23	Y23	Z23	X24	Y24	Z24	X25	Y25	Z25	X26	Y26	Z26	X27	Y27	Z27	
18	0.3396226415094339	0.5606482815244608	0.5066854377154234	0.797743806745353	0.5993785220832023	0.7136345789669878	1.2540708811726327	0.6478467511751911	0.8522211805487201	1.671838228099747	0.6090236670622392	0.7078875607695723	1.756581660588165	0.6753574482293561	0.67701635061631	1.7362982015497974	0.6205769765263027	0.9160313995009722	1.7130631538364716	0.338639669034489	0.5280519796320499	0.8174488137029348	0.3923816958506243	0.7205666961268529	1.268395099402568	0.42924689986134656	0.8526977474618338	1.708439219104274	0.46026076964224666	0.6863436784184138	1.7693607498816057	0.40046359011256083	0.6745246955289378	1.758465629126293	0.44473296109817817	0.9475721728121745	1.759325404362241	0.41275638673725734	0.24802685163907273	0.28928034563993577	0.3618856083601301	0.13755888317848092	0.059646972646890034	0.38914203863652125	0.11702773678747783	0.21066364249191427	0.5963917993453696	0.2923588925906737	0.3429449762907333	0.6430653640037314	0.3619001723380335	0.6146120041204249	0.559252888012675	0.36538068454390965	0.8819948064757765	0.46502899966502503	0.3676251747845924	0.9718454955660658	0.4659742635659457	0.40054075591377225	0.980119912932753	0.495814910468528	0.47435954491036886	0.9804990681624556	0.25815077156440674	0.31916927286751845	0.3741659417060851	0.25263444677323393	0.3747458933339375	0.642179330000435	0.3869372081606638	0.40976316808927715	0.8722818009607651	0.48142531832753593	0.39079195675069267	0.9275457397690007	0.48881072526774005	0.41320123953125365	0.9662695642986323	0.47338210365044275	0.45134066270572076	0.9721030095273587
19	0.3584905660377358	0.5606272926251732	0.50648320281757	0.7978069369414803	0.5993545024591183	0.7135181000586347	1.2540849435197254	0.6478472644022902	0.8521694776611874	1.6718195457955434	0.6096128047224346	0.7045238269028713	1.7556673017404152	0.6753009912786955	0.6769530280991963	1.7363502209908184	0.6206475011595475	0.9158446654365144	1.713041461308364	0.3387022512416039	0.5280451277174425	0.8173103446759717	0.3920197606765587	0.7190388249723795	1.2694803849215486	0.4289130340755212	0.851731662163753	1.7071096701028137	0.4617018098921776	0.6917170609624078	1.7714078722809812	0.4004907447180044	0.6745739273509853	1.7584156150985013	0.44470354558607195	0.947602750230703	1.7592902064537697	0.41275069805043596	0.24803675089748722	0.2892447729479074	0.3618846882416199	0.13759070691352043	0.05966058026424769	0.3890740487704412	0.11696634000151776	0.21110084369655568	0.5963735295934346	0.29229978558034775	0.34293912978748997	0.6439915611063817	0.3579651016516433	0.6142214219150308	0.5590027439515383	0.36524556967083033	0.8821362961332191	0.4651719649670784	0.36760824828136307	0.9719233870159837	0.46598939622748514	0.40084398636232826	0.9801783232324701	0.49587457670376106	0.4743634317243192	0.9807001398107611	0.2581578555896	0.31916948075542984	0.37412972733103655	0.2540921284773354	0.3709696242885242	0.6424981103494654	0.3873831053904552	0.4094559724234481	0.8719419423857849	0.4812196890439069	0.39015616677319054	0.9275026664971614	0.4886748099372425	0.412583348852018	0.966419870416606	0.4733770474962577	0.4515724319118341	0.9720711964484384
20	0.3773584905660377	0.5606425012238002	0.5060925373922047	0.7979070701849726	0.5993420496640953	0.7136468339230355	1.2543342235654888	0.647847254418467	0.8521492770159613	1.6717981762666454	0.610540541193016	0.7022942422822236	1.755069133829069	0.6756669610595964	0.6784698834125102	1.7364501734719675	0.6207310235212362	0.9155892233622633	1.7130485254919403	0.3387367658751852	0.5280065213679904	0.8172599722343677	0.3913787224542658	0.71477314172218	1.2698234702689684	0.42842703161583423	0.8502969926499266	1.7052368043407808	0.4627718590450609	0.6985705796090939	1.7744395475468182	0.4004991436597831	0.6748199201973982	1.7584279074902789	0.44479326720620366	0.9477463540944584	1.759220646893032	0.4127493643331607	0.24802794683169427	0.2891994293972264	0.3618880286985676	0.13760560883950956	0.059736499869607045	0.3889627078175939	0.1167153699507347	0.21216804082310328	0.596354142902072	0.2923620732404183	0.3429269620096702	0.6441756838777627	0.3564963685207932	0.6139727591206858	0.5583524112017897	0.36350392521889163	0.8825347621238093	0.4654823321555241	0.3675195986057609	0.9721248112484485	0.4660786245200342	0.40104467522182885	0.9802573332517349	0.4958337167573387	0.47405643620634963	0.9804100834966232	0.2581676376871579	0.31915612631195994	0.3740834798904472	0.2544590584211281	0.3698589378507401	0.6426470299781329	0.38854283167582887	0.40579819630162656	0.870994913855077	0.4807926699313311	0.38813786107359377	0.9273416433460863	0.4883015989299454	0.4103350307135373	0.9665554863710342	0.4733067277091358	0.4520216653663218	0.9720769286060087
21	0.3962264150943396	0.5606665269470958	0.5053965821835653	0.797976813377251	0.5993448452503647	0.7142281715390169	1.2546287084096694	0.6478325882678893	0.8521493872941521	1.6717928925840138	0.6108045005088114	0.7044071215648302	1.7558085932930043	0.6763788328960049	0.6812494339156954	1.7365295690164555	0.6206857981657263	0.9157841971407779	1.7130332076750272	0.3387858150443566	0.5278936895847536	0.8172668480873668	0.39025465325634767	0.7085014867779384	1.2685760696726485	0.4280297530308414	0.8491988477872588	1.7038877437170008	0.46285658043565714	0.7017917325882241	1.7767623153396919	0.4004762304793804	0.6750805218510564	1.7585318956136422	0.4448696945022513	0.9475883066571029	1.7590350250486266	0.4127529491427253	0.2480083988566567	0.2891644807264957	0.36190846441320623	0.13760163671178055	0.059819495285196256	0.38883613683374385	0.11633310180667467	0.2129436428910617	0.5963524448169355	0.29238008995449105	0.3429348503495727	0.6440781009747913	0.3564665763304702	0.6141058956494747	0.5576118258517755	0.3598110344250822	0.8830381932576971	0.4659910695655889	0.3685672134838506	0.972306657338783	0.46654109214671463	0.40123011843867196	0.98033501220716	0.495628189703073	0.4732990379405417	0.9794474140154432	0.2581766098602098	0.31914618091273844	0.37405358028322966	0.25429333105737173	0.37009001864635427	0.6426619286835017	0.3901109017212955	0.4000025620258155	0.8702125953015176	0.4803501125994843	0.38541837994869454	0.9269670258399697	0.48774819327034347	0.4063968878507476	0.9666237527132692	0.4732307811451771	0.45230348928577746	0.9721708831428377
22	0.4150943396226415	0.5606127803846642	0.504891676893716	0.7979734886811276	0.5994428175281363	0.7145426170256968	1.2539743428182888	0.6477945698262733	0.8521616328006708	1.6718112141413746	0.6098754570657842	0.7076334425410039	1.7572395984769091	0.6766966612356096	0.6822740058173513	1.7364574634532655	0.6201547722312474	0.9168789752847174	1.7128720123895378	0.3388428243270076	0.5278007771493514	0.8172866626009825	0.389318856457219	0.7037284142108376	1.2665812715489961	0.4278582368401543	0.8488138637608993	1.7034793660603473	0.46192005688126303	0.6983160101777506	1.7769210765476726	0.4004239639976964	0.6752887717266876	1.7586185309605793	0.44465423486154987	0.9458811003490571	1.758557412014988	0.41273266330660574	0.24803008885276592	0.2891504029648319	0.3619380746204335	0.13759611858125528	0.059849320099847086	0.3887434293286665	0.11601734845763789	0.21204825880072603	0.5963668945175371	0.2923471353292579	0.3429473934824573	0.6443335674198574	0.3577151896320476	0.6144409685440139	0.5572686998317601	0.35647882065180003	0.8829910032120041	0.4668675804932216	0.3718472445369528	0.9717336926508348	0.46781804866556576	0.4016698129563017	0.9802228530786129	0.4953787787934404	0.47243831226394056	0.9781657941143329	0.2581921344811579	0.3192223146666931	0.374055881157137	0.2540688185659556	0.37040504313299	0.6423024215785134	0.3912855194157905	0.3956371505414432	0.8698879175818396	0.48019319261042465	0.3840687606207232	0.9262420756008292	0.48745997609502895	0.40290564979916726	0.9665961643413964	0.4733328647671755	0.4509715000716117	0.9723788253844886
23	0.4339622641509434	0.5604648759001043	0.5050397004617804	0.7978881037793113	0.5997604238046427	0.7121740413797044	1.2512093123545172	0.6477466077700132	0.8521682083210953	1.6718424294742609	0.6079129549137418	0.7069991632482414	1.7581232900373296	0.6760993922623043	0.6794894592933416	1.7361825921567646	0.6192335803997703	0.9185131793031227	1.7126472749684674	0.33884245368368177	0.5278605560825153	0.81731592512072	0.3889894127399237	0.7022866404276158	1.2657764174617008	0.4278914606636382	0.8488485456290489	1.7035510355343684	0.46054243567291153	0.6909138771484853	1.7744237603354054	0.40040352066187335	0.6752590613908998	1.758324098939469	0.4439290377830535	0.941618666618389	1.7576934593382993	0.4126546393840031	0.24815568755966427	0.2891481707936682	0.36193323798393773	0.13756047602348156	0.059576920233331006	0.38871256098245227	0.11588275424686904	0.20973879220757238	0.5963784116824454	0.2923334026881743	0.34293711740577537	0.6452998685573196	0.3609279967368289	0.6143118691130088	0.5574723865559992	0.35646943649406204	0.8816200320561515	0.4680762057287053	0.37577811537728834	0.9693964949540583	0.46984350478047826	0.4025242078015421	0.9792940859752431	0.4952605429189094	0.47187319026638047	0.9769719875552625	0.25822769603612206	0.31948359159547035	0.37409786872244455	0.25387883465314537	0.37052946123369856	0.641224969359533	0.391602855105378	0.3939242745389796	0.8684790750997371	0.47994717460381014	0.3843937492117366	0.9243911584592641	0.48759582157826464	0.4023936704469737	0.966114420415479	0.4736476876455228	0.4466110137545197	0.9725456129015841
